<svg width="55" height="56" viewBox="0 0 55 56" fill="none" xmlns="http://www.w3.org/2000/svg">
<path d="M27.192 5.41455C22.7139 5.41455 18.3364 6.74246 14.613 9.23034C10.8896 11.7182 7.9876 15.2544 6.27391 19.3916C4.56023 23.5288 4.11185 28.0812 4.98548 32.4733C5.85911 36.8653 8.01551 40.8997 11.182 44.0661C14.3485 47.2326 18.3828 49.389 22.7748 50.2626C27.1669 51.1363 31.7193 50.6879 35.8566 48.9742C39.9938 47.2605 43.5299 44.3585 46.0178 40.6351C48.5057 36.9117 49.8336 32.5342 49.8336 28.0561C49.8336 25.0828 49.2479 22.1386 48.1101 19.3916C46.9722 16.6446 45.3045 14.1486 43.202 12.0461C41.0995 9.94365 38.6036 8.27588 35.8566 7.13804C33.1096 6.00019 30.1653 5.41455 27.192 5.41455ZM22.7748 35.5145V19.4054L35.1831 28.0561L22.7748 35.5145Z" fill="white"/>
</svg>
