<svg width="24" height="24" viewBox="0 0 24 24" fill="none" xmlns="http://www.w3.org/2000/svg">
<path d="M19.7305 8.15425C19.8664 8.15425 19.9918 8.20113 20.0915 8.27966L20.17 8.3535L20.1899 8.37694C20.8708 9.22087 21.3042 10.2372 21.4419 11.3128C21.5796 12.3884 21.4161 13.4811 20.9697 14.4693C20.5232 15.4576 19.8114 16.3025 18.9133 16.9102C18.0152 17.5179 16.9661 17.8645 15.8827 17.9114L15.6284 17.9161H8.59615C8.4777 17.9162 8.35927 17.9126 8.24102 17.9056L10.1831 19.8453C10.28 19.9424 10.3397 20.0704 10.3519 20.2071C10.3642 20.3437 10.328 20.4803 10.2499 20.5931L10.1831 20.6751C10.086 20.772 9.95795 20.8318 9.82131 20.844C9.68467 20.8562 9.54808 20.82 9.43533 20.7419L9.35329 20.6751L6.4232 17.745C6.3263 17.6479 6.26654 17.5199 6.25434 17.3832C6.24213 17.2466 6.27824 17.11 6.35639 16.9973L6.4232 16.9152L9.35329 13.9851C9.45665 13.8813 9.59515 13.82 9.74149 13.8132C9.88784 13.8064 10.0314 13.8547 10.1439 13.9485C10.2564 14.0424 10.3297 14.1749 10.3493 14.3201C10.3689 14.4653 10.3335 14.6126 10.2499 14.7329L10.1831 14.8149L8.26447 16.7324L8.42855 16.7417L8.59615 16.7441H15.6284C16.5137 16.7442 17.3809 16.4936 18.1298 16.0213C18.8786 15.549 19.4784 14.8743 19.8597 14.0753C20.2411 13.2763 20.3884 12.3857 20.2846 11.5065C20.1809 10.6272 19.8303 9.79537 19.2734 9.10712C19.2046 9.02095 19.1615 8.91711 19.149 8.80755C19.1366 8.69798 19.1553 8.58713 19.2031 8.48773C19.2508 8.38833 19.3256 8.30441 19.4189 8.24563C19.5122 8.18685 19.6202 8.15558 19.7305 8.15542V8.15425ZM14.0414 3.43681C14.1385 3.33992 14.2666 3.28016 14.4032 3.26795C14.5398 3.25574 14.6764 3.29186 14.7892 3.37001L14.8712 3.43681L17.8013 6.3669L17.8681 6.44894C17.9357 6.5468 17.9718 6.6629 17.9718 6.7818C17.9718 6.9007 17.9357 7.0168 17.8681 7.11466L17.8013 7.1967L14.8712 10.1268L14.7892 10.1936C14.6913 10.2611 14.5752 10.2973 14.4563 10.2973C14.3374 10.2973 14.2213 10.2611 14.1235 10.1936L14.0414 10.1268L13.9746 10.0447C13.9071 9.94688 13.8709 9.83079 13.8709 9.71189C13.8709 9.59298 13.9071 9.47689 13.9746 9.37903L14.0414 9.29699L15.96 7.37954L15.796 7.37016L15.6284 7.36782H8.59615C7.71007 7.36776 6.84211 7.61883 6.09288 8.0919C5.34366 8.56498 4.74384 9.2407 4.36295 10.0407C3.98207 10.8408 3.83571 11.7324 3.94085 12.6122C4.04598 13.492 4.39831 14.3241 4.95698 15.0118C5.05039 15.1363 5.09052 15.2928 5.06854 15.4469C5.04656 15.601 4.96427 15.74 4.83978 15.8334C4.77814 15.8797 4.70799 15.9133 4.63334 15.9325C4.55869 15.9516 4.481 15.9559 4.40471 15.945C4.25063 15.923 4.11159 15.8407 4.01818 15.7162C3.34195 14.871 2.91304 13.855 2.77899 12.7809C2.64495 11.7068 2.81103 10.6165 3.2588 9.63105C3.70657 8.64556 4.41854 7.80335 5.31576 7.19781C6.21298 6.59227 7.26038 6.24706 8.34182 6.20047L8.59615 6.19578H15.6284C15.7479 6.19578 15.8663 6.1993 15.9835 6.20633L14.0414 4.26662L13.9746 4.18457C13.8965 4.07182 13.8604 3.93523 13.8726 3.79859C13.8848 3.66195 13.9445 3.53392 14.0414 3.43681V3.43681Z" fill="#C4C4C4"/>
</svg>
