<svg width="26" height="26" viewBox="0 0 26 26" fill="none" xmlns="http://www.w3.org/2000/svg">
<path d="M17.8299 16.7752C17.336 16.6194 16.7055 16.2134 15.9999 15.507C15.3942 14.914 14.7693 14.1501 14.13 13.3174C13.9765 13.5212 13.8239 13.725 13.6705 13.9327C13.2525 14.4985 12.825 15.0699 12.3895 15.6317C13.911 17.4776 15.4901 19.29 17.8315 19.5889V21.7465L23.8688 18.2623L17.8307 14.7758V16.7752H17.8299ZM7.76583 9.80691C8.36996 10.3983 8.99487 11.1622 9.63576 11.9949C9.79078 11.7855 9.94741 11.5793 10.104 11.3652C10.5215 10.7982 10.9456 10.2361 11.3762 9.67905C9.75243 7.71003 8.07349 5.7578 5.46598 5.6643H2.66908V8.4612H5.46598C5.9894 8.43962 6.81009 8.84877 7.76583 9.80611V9.80691ZM17.8299 8.53392V10.5605L23.868 7.07394L17.8299 3.5874V5.70266C16.3084 5.87846 15.0929 6.77986 14.0341 7.81552C12.2784 9.56078 10.7441 11.9453 9.22981 13.8408C7.73786 15.7883 6.24112 16.947 5.46438 16.8535H2.66748V19.6504H5.46438C7.21044 19.6264 8.56494 18.6387 9.73165 17.4984C11.4849 15.7531 13.0208 13.3694 14.5343 11.4747C15.7674 9.86285 16.9988 8.80562 17.8299 8.53392V8.53392Z" fill="#C4C4C4"/>
</svg>
